# xmcd
#
# Track frame offsets:
# 150
# 18089
# 34980
# 51537
# 65465
# 82032
# 97987
# 112784
# 129339
# 142015
# 155979
# 170771
# 188021
# 201530
#
# Disc length: 2871 seconds
#
#
# Revision: 2
# Processed by: cddbd v1.5.2PL0 Copyright (c) Steve Scherf et al.
# Submitted via: MfcCDDB 1.28 
#
DISCID=c90b350e
DTITLE=TDC - Trio da saudade
DYEAR=2000
DGENRE=Vocal
TTITLE0=Seresteiro da lua
TTITLE1=O que tem a rosa
TTITLE2=Merica merica
TTITLE3=danca do macaco
TTITLE4=Beijinho doce
TTITLE5=Mocinhas da cidade
TTITLE6=Coracao de pedra
TTITLE7=E lallegrie
TTITLE8=Amor e a rosa
TTITLE9=Bate bate coracao
TTITLE10=La campanhola
TTITLE11=Rosa Branca
TTITLE12=Nasci para te amar
TTITLE13=Valsa Concordia
EXTD=
EXTT0=
EXTT1=
EXTT2=
EXTT3=
EXTT4=
EXTT5=
EXTT6=
EXTT7=
EXTT8=
EXTT9=
EXTT10=
EXTT11=
EXTT12=
EXTT13=
PLAYORDER=
